#N canvas 464 23 700 443 10;
#X declare -lib mrpeach;
#X obj 49 37 import mrpeach;
#X obj 48 78 udpreceive 9001;
#X obj 20 192 print raw;
#X obj 276 176 == 48;
#X obj 372 378 comport;
#X obj 328 179 == 53;
#X obj 378 176 == 54;
#X obj 432 176 == 55;
#X msg 391 264 devices;
#X msg 450 285 devicename /dev/tty.usbmodem12341;
#X msg 457 318 close;
#X obj 190 245 spigot;
#X obj 100 305 print after;
#X obj 90 129 t i i;
#X obj 144 131 t i i;
#X obj 204 132 t i i;
#X obj 258 134 t i i;
#X connect 1 0 13 0;
#X connect 1 0 2 0;
#X connect 1 0 14 0;
#X connect 1 0 15 0;
#X connect 1 0 16 0;
#X connect 3 0 11 1;
#X connect 5 0 11 1;
#X connect 6 0 11 1;
#X connect 7 0 11 1;
#X connect 8 0 4 0;
#X connect 9 0 4 0;
#X connect 10 0 4 0;
#X connect 11 0 12 0;
#X connect 11 0 4 0;
#X connect 13 0 11 0;
#X connect 13 1 3 0;
#X connect 14 0 11 0;
#X connect 14 1 5 0;
#X connect 15 0 11 0;
#X connect 15 1 6 0;
#X connect 16 0 11 0;
#X connect 16 1 7 0;
